<svg width="21" height="21" viewBox="0 0 21 21" fill="none" xmlns="http://www.w3.org/2000/svg">
<path d="M10.025 20.05C9.75833 20.05 9.504 20 9.262 19.9C9.02 19.8 8.79933 19.6583 8.6 19.475L0.575 11.45C0.391667 11.25 0.25 11.029 0.15 10.787C0.05 10.545 0 10.291 0 10.025C0 9.75901 0.05 9.50067 0.15 9.25001C0.25 8.99934 0.391667 8.78267 0.575 8.60001L8.6 0.575007C8.8 0.375007 9.021 0.229007 9.263 0.137007C9.505 0.0450072 9.759 -0.000659472 10.025 7.19425e-06C10.291 0.000673861 10.5493 0.0466738 10.8 0.138007C11.0507 0.22934 11.2673 0.375007 11.45 0.575007L19.475 8.60001C19.675 8.78334 19.821 9.00001 19.913 9.25001C20.005 9.50001 20.0507 9.75834 20.05 10.025C20.0493 10.2917 20.0037 10.546 19.913 10.788C19.8223 11.03 19.6763 11.2507 19.475 11.45L11.45 19.475C11.2667 19.6583 11.05 19.8 10.8 19.9C10.55 20 10.2917 20.05 10.025 20.05ZM9.025 11.025H11.025V5.02501H9.025V11.025ZM10.025 14.025C10.3083 14.025 10.546 13.929 10.738 13.737C10.93 13.545 11.0257 13.3077 11.025 13.025C11.0243 12.7423 10.9283 12.505 10.737 12.313C10.5457 12.121 10.3083 12.025 10.025 12.025C9.74167 12.025 9.50433 12.121 9.313 12.313C9.12167 12.505 9.02567 12.7423 9.025 13.025C9.02433 13.3077 9.12033 13.5453 9.313 13.738C9.50567 13.9307 9.743 14.0263 10.025 14.025Z" fill="#D30000"/>
</svg>
